<svg xmlns="http://www.w3.org/2000/svg" width="299" height="324"><path d="M148 11c2.346 1.192 2.346 1.192 4.781 2.703l2.768 1.702 2.951 1.845 3.087 1.906c3.142 1.941 6.278 3.892 9.413 5.844l5.445 3.363q5.165 3.189 10.32 6.39 5.477 3.4 10.97 6.774l2.86 1.762q2.694 1.659 5.392 3.31c3.629 2.238 7.188 4.488 10.615 7.026 2.96 2.164 6.027 3.74 9.326 5.325 3.747 1.9 7.232 4.214 10.76 6.487q2.493 1.591 4.988 3.18l2.616 1.667c4.673 2.96 9.377 5.87 14.083 8.778l2.682 1.66c4.668 2.935 4.668 2.935 9.543 5.493C273 88 273 88 273.615 90.649l-.014 3.254.021 3.736-.054 4.104q-.003 2.159.002 4.316c.001 3.91-.028 7.818-.063 11.727-.031 4.084-.034 8.168-.04 12.252-.016 7.735-.057 15.47-.107 23.204-.056 8.805-.083 17.61-.108 26.416-.053 18.114-.14 36.228-.252 54.342l-4 1v2c-2.237 1.581-2.237 1.581-5.387 3.457l-1.711 1.028a1127 1127 0 0 1-5.59 3.327q-2.895 1.735-5.789 3.474l-3.904 2.34a1190 1190 0 0 0-17.056 10.436l-2.561 1.586a1275 1275 0 0 0-11.076 6.93l-1.844 1.16q-2.345 1.48-4.684 2.969C207 275 207 275 204 275v2c-1.55 1.154-1.55 1.154-3.742 2.434l-2.456 1.45c-1.325.77-1.325.77-2.677 1.553l-5.512 3.254-2.837 1.669a982 982 0 0 0-12.464 7.515l-2.259 1.376c-4.577 2.8-9.062 5.695-13.424 8.823C157 306 157 306 154 306v2c-6.27 4.057-6.27 4.057-9.395 3.813-3.012-.94-5.402-2.245-8.105-3.875l-3.195-1.918L130 304l-3.18-1.926c-6.157-3.756-12.236-7.623-18.277-11.562-5.612-3.625-11.387-6.964-17.21-10.238-1.81-1.037-3.576-2.149-5.333-3.274v-2l-1.654-.305c-2.935-.87-5.247-2.243-7.877-3.808l-3.223-1.917a983 983 0 0 1-14.746-9.158c-8.542-5.37-17.129-10.648-25.816-15.78a219 219 0 0 1-4.327-2.632c-2.314-1.431-2.314-1.431-4.72-2.48-2.708-1.392-4.58-2.662-6.637-4.92-1.318-4.66-1.14-9.283-1.022-14.083q.004-2.16-.004-4.318c-.002-3.898.05-7.792.113-11.689.057-4.076.062-8.152.073-12.228.028-7.714.101-15.427.192-23.14.1-8.783.15-17.567.195-26.35.094-18.065.252-36.128.453-54.192l4-1v-2a98 98 0 0 1 6.313-4.125l1.802-1.129C33.617 77 33.617 77 37 77v-2a100 100 0 0 1 6.188-3.812l4.16-2.442 2.277-1.336c4.203-2.495 8.35-5.08 12.5-7.66l2.657-1.647q7.015-4.351 14.019-8.72l2.86-1.78q2.709-1.686 5.412-3.377C98.692 37 98.692 37 102 37v-2l3.5-1.875c10.328-5.734 20.226-12.28 30.168-18.652L138 13l2.488-1.754c3.136-1.555 4.194-1.184 7.512-.246m-16.125 17.938a476 476 0 0 1-15.75 9.812l-1.905 1.139a1644 1644 0 0 1-7.943 4.716c-1.792 1.078-3.542 2.227-5.277 3.395v2c18.405 9.886 18.405 9.886 38 15V25c-2.397 0-5.114 2.618-7.125 3.938M150 26a637 637 0 0 0 1 42c9.894 1.688 19.758 2.682 29.75 3.5a4292 4292 0 0 1 11.265.958 354 354 0 0 1 15.673 1.73c7.478.948 14.785 1.01 22.312.812-2.678-2.85-5.255-4.933-8.64-6.883l-2.722-1.583-2.888-1.659q-2.988-1.74-5.973-3.484l-2.973-1.737c-8.183-4.828-16.177-9.97-24.179-15.092-4.923-3.142-9.894-6.201-14.875-9.25-1.136-.695-1.136-.695-2.294-1.406A1019 1019 0 0 0 159 30l-2.033-1.221c-3.262-2.085-3.262-2.085-6.967-2.779M79.637 61.2c-2.983 2.037-6.078 3.735-9.244 5.468-3.822 2.128-7.543 4.415-11.268 6.707l-2.366 1.451A952 952 0 0 0 39 86l-1.996 1.242C35.634 88.11 34.309 89.045 33 90v2c1.58 1.18 1.58 1.18 3.664 2.285l2.382 1.347 2.579 1.43c7.373 4.15 14.45 8.526 21.395 13.356 3.48 1.848 5.097 2.217 8.98 1.582 2.657-1.185 5.058-2.676 7.5-4.25l1.934-1.2a263 263 0 0 0 8.847-5.784C93 99 93 99 96 98v-2l2.125-.812c5.404-2.233 10.266-4.997 15.14-8.2C115 86 115 86 117 86c-.06 1.418-.15 2.834-.25 4.25l-.14 2.39c-.984 3.806-3.667 5.73-6.861 7.865l-2.46 1.413-2.755 1.6-2.909 1.67c-14.61 7.81-14.61 7.81-27.625 17.812-.406 3.206-.406 3.206-.481 7.045l-.079 2.198c-.254 7.607-.367 15.219-.47 22.83-.053 3.606-.15 7.207-.287 10.812-.165 4.36-.25 8.715-.279 13.078a146 146 0 0 1-.157 4.966c-.39 7.74-.39 7.74 1.753 15.071 3.863 4.147 8.896 6.593 13.956 8.992 3.185 1.571 6.114 3.472 9.106 5.383 4.27 2.624 8.562 5.183 12.938 7.625l-1 9c-5.71-2.356-10.65-4.965-15.723-8.477-4.232-2.83-8.724-5.247-13.277-7.523.585 6.095 3.05 11.311 5.438 16.875l2.722 6.434 1.419 3.335c2.71 6.4 5.36 12.827 8.02 19.248a786 786 0 0 0 2.32 5.518q1.065 2.55 2.034 5.137c2.131 5.44 4.003 7.775 9.422 10.453q1.875.969 3.742 1.95l1.937.997c3.865 2.092 7.49 4.568 11.15 6.996 3.543 2.326 6.961 4.14 10.796 6.057v-47c-5.18-3.15-5.18-3.15-8-3v-2h-3c1.186-3.375 2.276-5.647 5-8 5.565 1.644 5.565 1.644 8.063 3.688 1.861 1.559 1.861 1.559 4.195 1.109 3.276-.952 5.677-2.399 8.554-4.234l1.664-1.05a817 817 0 0 0 3.584-2.275c2.8-1.787 5.608-3.559 8.42-5.326q2.116-1.332 4.226-2.673c2.743-1.73 5.205-3.21 8.294-4.239v-2l2.672-.797c3.247-1.174 5.712-2.548 8.578-4.453 3.61-2.36 7.23-4.67 10.938-6.875l2.445-1.469q2.353-1.398 4.734-2.75l2.196-1.281 1.94-1.102c1.995-1.697 2.035-2.69 2.497-5.273.132-2.351.21-4.706.256-7.06l.045-2.13c.125-6.46.194-12.921.247-19.382.036-4.336.09-8.67.186-13.006.093-4.2.141-8.398.159-12.6q.021-2.396.09-4.79c.54-8.763.54-8.763-2.978-16.379-2.897-1.996-5.421-3.653-9.005-3.653v-2l-3.5-1.687c-3.787-1.88-7.311-4.029-10.836-6.36-1.634-1.119-1.634-1.119-3.664-.953l3-9c5.948 1.873 10.307 4.5 15.344 8.145 2.758 1.926 5.554 3.674 8.469 5.355l2.644 1.531c3.148 1.2 4.377 1.093 7.543-.031 2.26-1.34 4.402-2.704 6.563-4.187C236.819 103.64 243.178 100.186 250 97v-2l6-2-1-4c-14.962-1.7-29.925-3.325-44.919-4.714-5.86-.544-11.72-1.09-17.58-1.648q-2.114-.2-4.229-.395-2.968-.275-5.936-.56l-3.483-.326C176 81 176 81 173 80c-9.002-1.328-18.115-1.118-27.187-1.062q-2.166.008-4.33.013-5.242.017-10.483.049v-6a32815 32815 0 0 0-15.855-6.571 2790 2790 0 0 0-18.899-7.78l-2.291-.933c-6.149-2.253-9.38-.157-14.318 3.483M28 100c-1.661 1.661-1.178 3.657-1.225 5.944l-.068 3.197q-.107 7.283-.167 14.566a676 676 0 0 1-.123 7.673c-.08 3.688-.112 7.373-.136 11.061l-.1 3.445c.015 5.765.373 9.313 4.222 13.764A91 91 0 0 0 34 163l2.273 2.152 2.102 1.786c5.9 5.17 11.355 10.765 16.824 16.386l2.14 2.176 1.919 1.969c1.771 1.757 1.771 1.757 4.742 2.531.209-8.762.369-17.523.466-26.287.047-4.07.11-8.139.213-12.208.098-3.929.152-7.857.175-11.787q.024-2.246.098-4.49c.531-8.304.531-8.304-2.925-15.455-2.29-1.541-4.497-2.685-7.027-3.773l-4.562-3.125c-3.334-2.226-6.695-4.074-10.31-5.797-4.178-2.116-8.14-4.626-12.128-7.078m202 19c3.194 7.446 10.7 12.861 16.746 18.027a221 221 0 0 1 5.352 4.852l1.64 1.528a599 599 0 0 1 3.226 3.038c2.585 2.72 2.585 2.72 6.036 3.555v-49c-9.586 0-25.053 12.702-33 18m-4 13a776 776 0 0 0-1.192 25.873c-.12 4.012-.28 8.013-.543 12.018-1.739 17.284-1.739 17.284 3.906 32.893 5.365 4.588 11.346 7.422 17.886 9.966 3.891 1.653 7.291 3.859 10.788 6.218 2.108 1.256 2.108 1.256 4.436.695L263 219c.152-7.58.257-15.16.33-22.742q.044-3.867.123-7.734c.073-3.709.106-7.416.133-11.126.03-1.15.062-2.3.094-3.485.056-6.995.056-6.995-3.592-12.688-2.724-2.42-2.724-2.42-5.088-2.225v-2c-1.447-1.503-1.447-1.503-3.375-3.062-6.943-5.911-13.801-11.881-20.055-18.528-1.736-1.559-3.475-2.406-5.57-3.41M27 170v51c3.966 0 6.284-1.852 9.5-3.937 6.144-3.944 6.144-3.944 9.5-5.063v-2l2.168-.836c2.79-1.146 5.455-2.426 8.145-3.789l2.675-1.352L61 203c-1.55-3.1-4.14-5.283-6.574-7.707l-1.702-1.704a2485 2485 0 0 0-3.578-3.574 2368 2368 0 0 1-5.425-5.431l-3.483-3.479-1.62-1.626C33.342 173.48 33.342 173.48 27 170m187.926 41.121-2.42 1.39c-4.142 2.46-8.236 4.994-12.318 7.552C185.93 228.94 171.546 237.603 157 246c.698 3.154.698 3.154 3.326 4.455l3.072 1.506 3.395 1.68 3.582 1.734c1.143.565 2.287 1.13 3.465 1.71 3.377 1.66 6.767 3.29 10.16 4.915l3.095 1.528c.95.458 1.902.915 2.882 1.386l2.51 1.225c2.991 1.025 5.37 1.093 8.513.861 2.354-1.208 2.354-1.208 4.5-3 3.96-2.95 8.004-5.534 12.313-7.937 6.845-3.84 13.521-7.919 20.187-12.063q1.745-1.072 3.492-2.14l1.748-1.07 4.787-2.93c3.034-1.898 6.006-3.861 8.973-5.86-1.12-3.36-1.446-3.555-4.36-5.2l-2.114-1.214-2.276-1.274q-2.327-1.332-4.652-2.667l-2.348-1.342c-4.266-2.47-8.433-5.097-12.613-7.71-5.277-3.189-8.058-4.722-13.711-1.472M58.75 214.5l-6.598 4.148a1489 1489 0 0 1-9.402 5.852l-3.078 1.906A81 81 0 0 1 33 230c1.404 4.211 4.37 5.2 8.063 7.25 8.549 4.877 16.889 10.05 25.209 15.308C73.097 256.856 80.009 260.977 87 265c1.443-4.328-.418-7.338-2.062-11.375l-.972-2.444c-2.35-5.841-4.931-11.538-7.626-17.228-1.679-3.7-3.053-7.465-4.395-11.297-1.52-4.27-3.234-8.46-4.945-12.656-2.65 0-5.976 3.06-8.25 4.5M150 257v39c3.254 0 4.062-.427 6.738-2.09.732-.45 1.464-.9 2.217-1.365l2.357-1.483 2.414-1.501q2.452-1.53 4.897-3.068a864 864 0 0 1 6.643-4.122l3.797-2.371 1.784-1.094c3.472-2.187 3.472-2.187 5.153-5.906l-3.148-1.574-2.033-1.017q-2.207-1.103-4.415-2.203a519 519 0 0 1-9.341-4.745c-5.754-3.006-10.622-4.529-17.063-6.461" fill="#FFF"/><path d="m127.48 88.76 3.163.013h3.58l3.879.032 3.96.008c3.475.008 6.95.028 10.425.05 3.546.02 7.092.03 10.638.04 6.958.02 13.917.055 20.875.097 1.355 4.064.23 5.233-1.625 9.062l-.926 1.927A784 784 0 0 1 178 107l-1.483 2.991a4451 4451 0 0 1-9.975 19.941 6008 6008 0 0 0-6.355 12.693L157 149h33c0 4.731-1.16 6.325-4 10h-2l-.813 2.437L182 164l-3 1-2 5c-1.702 2.542-3.594 4.921-5.5 7.312l-1.512 1.956c-1.278 1.619-2.628 3.18-3.988 4.732h-2l-.664 2.105c-1.67 3.62-4.069 6.28-6.711 9.207a227 227 0 0 0-12.688 15.75 270 270 0 0 1-13.265 16.609c-2.404 2.79-4.656 5.602-6.735 8.641L122 239h-2l-.785 2.2c-1.26 2.903-2.723 5.11-4.653 7.612l-1.808 2.395L111 253h-3c.513-4.1 1.545-7.701 3.05-11.543 1.187-3.07 2.286-6.168 3.387-9.27a1050 1050 0 0 1 4.688-12.937c1.5-4.111 2.8-8.246 4.027-12.445A371 371 0 0 1 132 181l1-3h-28c.986-8.548 2.272-16.68 4.463-24.996 1.53-5.827 2.714-11.682 3.826-17.602.711-3.402.711-3.402 1.703-6.836 1.084-3.835 1.824-7.644 2.508-11.566.892-5.115 2.06-10.003 3.5-15 .536-2.876.991-5.754 1.437-8.645.787-3.292 1.642-4.266 5.043-4.596" fill="#FFF"/><path d="M148 11c2.346 1.192 2.346 1.192 4.781 2.703l2.768 1.702 2.951 1.845 3.087 1.906c3.142 1.941 6.278 3.892 9.413 5.844l5.445 3.363q5.165 3.189 10.32 6.39 5.477 3.4 10.97 6.774l2.86 1.762q2.694 1.659 5.392 3.31c3.629 2.238 7.188 4.488 10.615 7.026 2.96 2.164 6.027 3.74 9.326 5.325 3.747 1.9 7.232 4.214 10.76 6.487q2.483 1.585 4.968 3.168l2.614 1.666c4.783 3.03 9.6 6.004 14.417 8.979l2.81 1.736Q264.747 82.995 268 85c-2 1-2 1-3.945.441l-2.18-.879-2.195-.87L258 83c-.07 2.533-.071 4.724.563 7.188C259 92 259 92 258 94l-3 1-1 2h-2v2h-2c1.165 1.666 1.165 1.666 3 3 3.907-.2 6.002-1.622 9-4h2v55c-4-2-4-2-6-4-3.583-.167-3.583-.167-7 0l2-5-2.937-.75L247 142c-.625-1.937-.625-1.937-1-4-1.977-1.754-1.977-1.754-4-3v2l-3 1c.593 3.392 1.767 5.21 4.063 7.75l1.66 1.86L246 149c-4.325-1.659-7.094-4.871-10.25-8.125l-1.68-1.707A1078 1078 0 0 1 230 135c3.106 0 4.353.54 7 2l-1-6h-2v-4c-1.289-1.66-1.289-1.66-3-3.062-1.687-1.473-1.687-1.473-3-2.938v-3l2.438-.812L233 116l1-3 2-.187c4.187-1.134 7.426-3.41 11-5.813l-2-2v-3l-1.562.875c-3.062 1.413-6.187 2.25-9.438 3.125 3.54-4.156 8.062-6.781 13-9h3v-2l6-2-1-3c-14.962-1.7-29.925-3.325-44.919-4.714-5.86-.544-11.72-1.09-17.58-1.648q-2.114-.2-4.229-.395-2.968-.275-5.936-.56l-3.483-.326C176 82 176 82 173 81c-8.99-1.252-18.127-1.306-27.187-1.562l-4.33-.131A5757 5757 0 0 0 131 79v-6l-2.084-.334c-3.383-.773-6.37-1.977-9.572-3.318l-1.893-.789q-2.978-1.244-5.951-2.496-1.998-.837-3.996-1.67-3.678-1.536-7.354-3.08C93.318 58.21 93.318 58.21 86 58c-2.24 1.266-4.292 2.673-6.363 4.2-2.983 2.037-6.078 3.735-9.244 5.468-3.822 2.128-7.543 4.415-11.268 6.707l-2.364 1.45a860 860 0 0 0-15.5 9.737 126 126 0 0 1-4.991 3C33.885 89.8 33.885 89.8 33 92l1.922.672C39.23 94.53 43.2 96.886 47.25 99.25l2.45 1.41c4.913 2.854 9.618 5.87 14.228 9.193C67.37 111.759 70.155 111.419 74 111v2c-4.716.925-7.673 1.23-12-1v-2l-6-1c-2.185 2.676-2.185 2.676-2 5l4 1v2l4 1v2c-5.38-1.274-9.098-4.088-13.492-7.27A47 47 0 0 0 42 108.937c-4.828-2.338-9.4-5.177-14-7.937v56l-2-1V97h4l-1-7 6-3v-4c-4.836.99-9.476 1.957-14 4v-2a98 98 0 0 1 6.313-4.125l1.802-1.129C33.617 77 33.617 77 37 77v-2a100 100 0 0 1 6.188-3.812l4.16-2.442 2.277-1.336c4.203-2.495 8.35-5.08 12.5-7.66l2.657-1.647q7.015-4.351 14.019-8.72l2.86-1.78q2.709-1.686 5.412-3.377C98.692 37 98.692 37 102 37v-2l3.5-1.875c10.328-5.734 20.226-12.28 30.168-18.652L138 13l2.488-1.754c3.136-1.555 4.194-1.184 7.512-.246m-16.125 17.938a476 476 0 0 1-15.75 9.812l-1.905 1.139a1644 1644 0 0 1-7.943 4.716c-1.792 1.078-3.542 2.227-5.277 3.395v2c18.405 9.886 18.405 9.886 38 15V25c-2.397 0-5.114 2.618-7.125 3.938M150 26a637 637 0 0 0 1 42c9.894 1.688 19.758 2.682 29.75 3.5a4292 4292 0 0 1 11.265.958 354 354 0 0 1 15.673 1.73c7.478.948 14.785 1.01 22.312.812-2.678-2.85-5.255-4.933-8.64-6.883l-2.722-1.583-2.888-1.659q-2.988-1.74-5.973-3.484l-2.973-1.737c-8.183-4.828-16.177-9.97-24.179-15.092-4.923-3.142-9.894-6.201-14.875-9.25-1.136-.695-1.136-.695-2.294-1.406A1019 1019 0 0 0 159 30l-2.033-1.221c-3.262-2.085-3.262-2.085-6.967-2.779m80 93c3.194 7.446 10.7 12.861 16.746 18.027a221 221 0 0 1 5.352 4.852l1.64 1.528a599 599 0 0 1 3.226 3.038c2.585 2.72 2.585 2.72 6.036 3.555v-49c-9.586 0-25.053 12.702-33 18" fill="#FFF"/><path d="M257 82q2.033.65 4.063 1.313l2.285.738c3.273 1.171 6.457 2.58 9.652 3.949v146l-12 6a222 222 0 0 0-6.937 4.25c-3.62 2.315-7.016 4.29-11.063 5.75l-1-6 2.313-.25c3.242-.905 3.85-2.038 5.687-4.75h2l.313-1.812c.78-2.487 1.836-3.417 3.687-5.188v-2a152 152 0 0 0-7.687-4.625q-2.341-1.346-4.68-2.695l-2.366-1.36c-4.267-2.484-8.444-5.11-12.63-7.726-4.368-2.78-4.368-2.78-9.324-3.594-3.041.918-4.606 1.756-7.149 3.531-6.22 4.231-12.664 8.083-19.101 11.969q-1.836 1.11-3.67 2.223a2556 2556 0 0 1-7.096 4.28 482 482 0 0 0-6.333 3.9l-2.718 1.69-2.358 1.491L169 240l-2-1 4-4h-2v-4l-2 2-4-2a1218 1218 0 0 1 6.813-4.5l1.947-1.3c4.9-3.2 4.9-3.2 8.24-3.2v-2l1.512-.812c5.832-3.183 11.481-6.615 17.117-10.133 4.29-2.615 8.683-5.03 13.105-7.414 2.711-1.963 2.75-2.431 3.266-5.641.137-2.351.22-4.706.272-7.06l.05-2.13c.14-6.46.218-12.92.278-19.382.041-4.336.102-8.67.21-13.006.103-4.2.158-8.398.178-12.6q.024-2.396.1-4.79c.146-4.808.177-9.35-1.088-14.032-2.49-2.47-4.627-3.718-7.848-5.07L205 117v-2l-2.074-.246c-3.688-.95-6.576-2.775-9.738-4.817l-1.811-1.142A679 679 0 0 1 187 106c.614-3.338 1.346-6.022 3-9 7.034.664 7.034.664 10 4 1.576.939 3.158 1.87 4.77 2.746a127 127 0 0 1 5.18 3.102l3.175 1.965 3.008 1.894c3.294 1.485 4.51 1.491 7.867.293 1.912-1.023 1.912-1.023 3.688-2.312 5.61-3.673 11.777-6.19 18.312-7.688v4l2 2a992 992 0 0 1-4.312 2.938l-2.426 1.652C239 113 239 113 236 114l-2-1-1 4-5 1c2.285 4.09 4.957 7.464 8 11h-2v2h2l1 6c-3.902-.75-6.166-2.083-10-4l-1 67 5 2a95 95 0 0 1 4.074 2.39l2.26 1.394 2.353 1.466 4.829 2.973q3.895 2.409 7.78 4.836l2.642 1.629 2.214 1.386c1.95 1.15 1.95 1.15 4.848.926.178-7.58.3-15.16.385-22.742q.052-3.867.143-7.734c.085-3.709.125-7.416.156-11.126l.11-3.485c.142-5.876.142-5.876-2.399-10.943-1.884-1.638-1.884-1.638-3.888-2.898L255 159v-2l-1.796-.805c-3.668-1.988-6.192-5.045-9.017-8.07l-1.85-1.895-1.732-1.847-1.589-1.675C238 141 238 141 238.337 138.788L239 137h3v-2c3.902 1.48 4.907 3.512 7 7 2.067 1.328 2.067 1.328 4 2l-1 4 2.625-.312C258 148 258 148 264 153V98l-8 5c-3-.187-3-.187-5-1l-1-3h2v-2h2l1-3h3c.09-3.22-.173-5.898-1-9z" fill="#FFF"/><path d="m169 230 1 2-1 3h2c-1.44 4.32-4.344 6.407-8 9-3.437 1.375-3.437 1.375-6 2 2.408 2.717 4.916 4.138 8.156 5.742l3.102 1.543 3.242 1.59 3.148 1.566c3.109 1.539 6.228 3.052 9.352 4.559l3.023 1.497 2.883 1.386 2.541 1.239c3.012 1.036 5.388 1.114 8.553.878 2.354-1.208 2.354-1.208 4.5-3 3.96-2.95 8.004-5.534 12.313-7.937 7.445-4.176 14.704-8.626 21.937-13.16q1.767-1.108 3.539-2.212 2.42-1.509 4.836-3.027A48 48 0 0 1 256 233l-1.437 1.313c-1.8 1.71-1.8 1.71-2.563 4.687a91 91 0 0 1-4 4l-2 2c-2.125-.375-2.125-.375-4-1l1 6 4.188-2.5 2.734-1.629a291 291 0 0 0 6.531-4.086l1.753-1.117a974 974 0 0 0 5.009-3.227L266 236l3 1-2.237 1.354c-12.427 7.526-24.853 15.052-37.2 22.708l-2.561 1.586a1293 1293 0 0 0-11.076 6.93l-1.844 1.16q-2.345 1.48-4.684 2.969C207 275 207 275 204 275v2c-1.55 1.154-1.55 1.154-3.742 2.434l-2.456 1.45-2.677 1.553-5.512 3.254-2.837 1.669a982 982 0 0 0-12.464 7.515l-2.259 1.376c-4.577 2.8-9.062 5.695-13.424 8.823C157 306 157 306 154 306v2c-6.269 4.056-6.269 4.056-9.387 3.816-5.313-1.66-9.895-4.922-14.613-7.816l-3.191-1.914-2.996-1.836-2.731-1.672C119 297 119 297 118 294l-2-1c-2-1-2-1-3-4 1.438-2.187 1.438-2.187 3-4l3 1v2l5 1 14 7 1-46-6-2-2-1v-2h-3c.48-4.314 1.746-6.166 5-9 5.565 1.644 5.565 1.644 8.063 3.688 1.855 1.549 1.855 1.549 4.156 1.148 4.709-1.415 8.475-4.399 12.527-7.121 3.504-1.847 5.38-1.888 9.254-1.715zm-19 27v39c3.254 0 4.062-.427 6.738-2.09.732-.45 1.464-.9 2.217-1.365l2.357-1.483 2.414-1.501q2.452-1.53 4.897-3.068a864 864 0 0 1 6.643-4.122l3.797-2.371 1.784-1.094c3.472-2.187 3.472-2.187 5.153-5.906l-3.148-1.574-2.033-1.017q-2.207-1.103-4.415-2.203a519 519 0 0 1-9.341-4.745c-5.754-3.006-10.622-4.529-17.063-6.461" fill="#FFF"/><path d="M257 82q2.033.65 4.063 1.313l2.285.738c3.273 1.171 6.457 2.58 9.652 3.949v146l-12 6a222 222 0 0 0-6.937 4.25c-3.62 2.315-7.016 4.29-11.063 5.75l-1-6 2.313-.25c3.242-.905 3.85-2.038 5.687-4.75h2l.188-1.812c1.136-3.06 2.985-3.738 5.812-5.188-.733-3.269-.733-3.269-3.937-4.812-3.544-2.531-4.155-4.012-5.063-8.188v-2q2.065.648 4.125 1.313l2.32.738c2.974 1.105 5.728 2.515 8.555 3.949.055-7.607.066-15.212.023-22.819a771 771 0 0 1 .008-10.596c.034-4.065.003-8.126-.031-12.19l.059-3.833c.132-6.288.132-6.288-2.907-11.43-2.164-1.381-2.164-1.381-4.437-2.314L255 159v-2l-1.796-.805c-3.668-1.988-6.192-5.045-9.017-8.07l-1.85-1.895-1.732-1.847-1.589-1.675C238 141 238 141 238.337 138.788L239 137h3v-2c3.902 1.48 4.907 3.512 7 7 2.067 1.328 2.067 1.328 4 2l-1 4 2.625-.312C258 148 258 148 264 153V98l-8 5c-3-.187-3-.187-5-1l-1-3h2v-2h2l1-3h3c.09-3.22-.173-5.898-1-9zM35 83c.688 2.063.688 2.063 1 4-3.625 3-3.625 3-7 3l1.063 2.375L31 95l-1 2h-4q-.014 11.436.08 22.87c.03 3.54.047 7.08.04 10.62a982 982 0 0 0 .075 12.213l-.027 3.848c.054 3.26.149 6.26.832 9.449 2.707 2.718 2.707 2.718 6 4 1.604 1.842 1.604 1.842 2.852 3.719 3.38 4.753 7.359 8.715 11.523 12.781l2.23 2.203Q52.295 181.358 55 184l-3 5c-5.817-1.077-9.62-4.386-13.625-8.562-2.415-2.51-4.466-4.499-7.375-6.438a396 396 0 0 1-3-5l-2-1v55l8-1c2 1.313 2 1.313 3 3v2l-6 2v3h2v2l3 1v3l-2 2c-3.756-.327-6.736-1.117-10-3v-3c-1.207.03-1.207.03-2.437.063C19 234 19 234 18 233a106 106 0 0 1-.174-5.553l-.04-3.654-.026-4.046-.04-4.232a6944 6944 0 0 1-.217-38.664c-.033-9.53-.092-19.06-.187-28.591-.064-6.697-.098-13.393-.11-20.09-.007-4.001-.028-8.002-.082-12.004-.05-3.766-.063-7.53-.047-11.297q0-2.072-.044-4.144c-.208-10.426-.208-10.426 2.694-13.633C21.789 85.765 23.7 84.838 26 84l3.313-1.375C32 82 32 82 35 83" fill="#FFF"/><path d="m254 233 2 1-3 2-1 3a91 91 0 0 1-4 4l-2 2c-2.125-.375-2.125-.375-4-1l1 6 4.188-2.5 2.734-1.629a291 291 0 0 0 6.531-4.086l1.753-1.117a974 974 0 0 0 5.009-3.227L266 236l3 1-2.237 1.354c-12.427 7.526-24.853 15.052-37.2 22.708l-2.561 1.586a1293 1293 0 0 0-11.076 6.93l-1.844 1.16q-2.345 1.48-4.684 2.969C207 275 207 275 204 275v2c-1.55 1.154-1.55 1.154-3.742 2.434l-2.457 1.452-2.676 1.551q-2.745 1.614-5.488 3.231l-2.835 1.665a449 449 0 0 0-8.032 4.905l-2.468 1.536q-2.33 1.455-4.651 2.923l-2.124 1.319-1.851 1.165C166 300 166 300 163 300c3.75-3 3.75-3 6-3 .544-3.058 1-5.888 1-9l-5 1c2.074-2.212 4.124-3.82 6.723-5.375l2.13-1.297q2.214-1.33 4.43-2.656l2.127-1.297 1.942-1.164c1.943-1.283 1.943-1.283 3.648-4.211l-1.898-.73c-4.29-1.756-8.504-3.673-12.727-5.582l-2.543-1.147c-6.283-2.835-12.557-5.689-18.832-8.541l1 41h-2v-43l8 1v-2c2-2 2-2 4-3 8.872 2.433 16.853 6.735 25.025 10.88 1.068.529 2.136 1.057 3.237 1.6l2.905 1.466c3.166 1.178 5.48 1.338 8.833 1.054 2.354-1.208 2.354-1.208 4.5-3 3.96-2.95 8.004-5.534 12.313-7.937 6.845-3.84 13.522-7.918 20.187-12.063q1.798-1.107 3.598-2.21l1.788-1.099 1.739-1.066c2.991-1.836 5.955-3.678 8.875-5.625M18 87l2 1-1 1c-.097 1.86-.122 3.724-.12 5.587l-.004 3.676.01 4.07v4.256q.001 5.795.013 11.59.007 6.05.008 12.1.005 11.464.021 22.928.016 13.049.022 26.096.016 26.85.05 53.697l5 1v3c2.982.773 5.976 1.412 9 2l2-4-2-1 1-2c10.901 6.295 21.629 12.833 32.271 19.557 6.825 4.3 13.738 8.42 20.729 12.443l-.605-1.784C84.465 256.515 82.7 250.774 81 245h2q.909 2.468 1.813 4.938l1.109 3.019c1.212 3.421 2.27 6.875 3.27 10.363L90 265l3 1 4-2-2-9h-2a278 278 0 0 1-1.562-4.25l-.88-2.39c-.612-2.587-.281-3.855.442-6.36q1.271 2.997 2.538 5.995 1.096 2.589 2.21 5.172c1.714 4.012 3.355 7.978 4.627 12.153 2.295 7.295 4.676 11.63 11.438 15.243 2.38 1.18 4.784 2.304 7.187 3.437a142 142 0 0 1 5.375 3.5l2.148 1.469L128 290l-2 1c-3.947-1.435-7.311-2.678-10-6-1.106 2.39-1.106 2.39-2 5 1.255 2.51 2.5 2.871 5 4v2c-3.571-1.317-6.58-2.9-9.75-5a229 229 0 0 0-10.746-6.613l-2.347-1.354a690 690 0 0 0-4.67-2.656c-1.861-1.071-3.68-2.218-5.487-3.377v-2l-1.654-.305c-2.935-.87-5.247-2.243-7.877-3.808l-3.223-1.917a983 983 0 0 1-14.746-9.158c-8.542-5.37-17.129-10.648-25.816-15.78a219 219 0 0 1-4.327-2.631c-2.314-1.432-2.314-1.432-4.72-2.481-2.706-1.393-4.58-2.663-6.637-4.92-1.322-4.654-1.15-9.272-1.038-14.068q.001-2.156-.008-4.313c-.007-3.893.041-7.783.1-11.676.053-4.073.055-8.145.063-12.218.02-6.834.073-13.667.15-20.5.106-9.65.157-19.299.195-28.948.054-12.913.124-25.827.26-38.739q.021-2.1.038-4.203.024-2.856.06-5.712l.032-3.237C17 88 17 88 18 87" fill="#FFF"/><path d="m62 120 3 1v72l-8-4-3 4h2a375 375 0 0 1 4 6l2 1c-.505 4.419-2.13 6.667-5 10v1l3-2 2 2 3-2h3c1.257 2.906 2 4.796 2 8h2q1.045 3.151 2.063 6.313l1.16 3.55C76 230 76 230 75 233l-.953-2.527C71.544 223.89 68.936 217.4 66 211l-3.043 1.906q-5.39 3.374-10.784 6.738-2.08 1.297-4.158 2.599-2.661 1.664-5.328 3.32l-3.113 1.94C37 229 37 229 34 230l-1 2h-2v-3l6-2-1-4H26v-55c4 2 4 2 5 4l-3-1v50c7.593-4.352 7.593-4.352 15-9h3v-2c2.52-1.727 2.52-1.727 5.813-3.625l3.269-1.914C58 203 58 203 61 203l-2.168-2.168L46 188c3 0 3 0 6 1l2-5-19-19c3 0 3 0 5.42 2.095q1.427 1.44 2.834 2.901l1.52 1.54a998 998 0 0 1 4.788 4.901q2.397 2.45 4.8 4.891a667 667 0 0 1 2.982 3.052c2.566 2.652 2.566 2.652 5.656 4.62q.034-13.051.052-26.104.007-6.06.023-12.12.016-5.844.02-11.69.003-2.234.01-4.466.01-3.121.009-6.243l.006-3.593c.072-2.74.072-2.74-1.12-4.784" fill="#FFF"/><path d="m18 87 2 1-1 1c-.097 1.86-.122 3.724-.12 5.587l-.004 3.676.01 4.07v4.256q.001 5.795.013 11.59.007 6.05.008 12.1.005 11.464.021 22.928.016 13.049.022 26.096.016 26.85.05 53.697l5 1v3c2.982.773 5.976 1.412 9 2l2-4-2-1 1-2c9.234 5.344 18.415 10.78 27.5 16.375l2.517 1.513 2.327 1.448 2.068 1.267c1.946 1.712 1.993 2.939 2.588 5.397l3 1-5 4-3.437-1.812c-2.837-1.436-5.498-2.492-8.563-3.313-6.872-2.185-12.719-6.544-18.727-10.425-4.813-3.07-9.714-6-14.597-8.958l-2.203-1.34-1.961-1.187C18 235 18 235 17 234c-.099-1.883-.126-3.77-.127-5.656l-.009-3.723.007-4.121-.006-4.31a5936 5936 0 0 1 0-11.74c.003-4.086 0-8.172 0-12.259q-.003-10.294.005-20.59.006-11.919-.002-23.838-.007-10.215-.003-20.43.003-6.11-.001-12.22-.004-5.74.005-11.484l-.002-4.226q-.002-2.874.006-5.747l.001-3.256C17 88 17 88 18 87m196 114v2h-3v3h2v2c3.075-.776 3.075-.776 5-3v2h4v2l-2.738 1.035c-5.83 2.503-11.087 6.044-16.45 9.403l-3.453 2.14a6671 6671 0 0 0-6.982 4.327c-4.949 3.07-9.904 6.128-14.877 9.157l-2.532 1.57-2.312 1.403-2.006 1.23L169 240l-2-1 4-4h-2v-4l-2 2-4-2a1218 1218 0 0 1 6.813-4.5c.642-.43 1.285-.859 1.947-1.3 4.9-3.2 4.9-3.2 8.24-3.2v-2l1.512-.812c6.985-3.813 13.724-7.998 20.488-12.188a1174 1174 0 0 1 5.688-3.5l2.386-1.469C212 201 212 201 214 201" fill="#FFF"/><path d="m36 77-.625 1.875L35 81l2 2c3.412-.37 6.689-1.109 10-2-3.081 3.418-6.86 5.342-10.82 7.598-2.3 1.217-2.3 1.217-3.18 3.402l1.922.672C39.23 94.53 43.2 96.886 47.25 99.25l2.45 1.41c4.913 2.854 9.618 5.87 14.228 9.193C67.37 111.759 70.155 111.419 74 111v2c-4.716.925-7.673 1.23-12-1v-2l-6-1c-2.185 2.676-2.185 2.676-2 5l4 1v2l4 1v2c-5.38-1.274-9.098-4.088-13.492-7.27A47 47 0 0 0 42 108.937c-4.828-2.338-9.4-5.177-14-7.937v56l-2-1V97h4l-1-7 6-3v-4c-4.836.99-9.476 1.957-14 4v-2a102 102 0 0 1 6.375-4.125l1.828-1.129C33.73 77 33.73 77 36 77m186 8c7.544-.276 14.99.134 22.5.813l2.644.212c8.19.797 8.19.797 10.856 3.975v4l-3 1-1 2h-2v2h-2c1.165 1.666 1.165 1.666 3 3 3.907-.2 6.002-1.622 9-4h2v55c-4-2-4-2-6-4-3.583-.167-3.583-.167-7 0l2-5-2.937-.75L247 142c-.625-1.937-.625-1.937-1-4-1.977-1.754-1.977-1.754-4-3v2l-3 1c.593 3.392 1.767 5.21 4.063 7.75l1.66 1.86L246 149c-4.325-1.659-7.094-4.871-10.25-8.125l-1.68-1.707A1078 1078 0 0 1 230 135c3.106 0 4.353.54 7 2l-1-6h-2v-4c-1.289-1.66-1.289-1.66-3-3.062-1.687-1.473-1.687-1.473-3-2.938v-3l2.438-.812L233 116l1-3 2-.187c4.187-1.134 7.426-3.41 11-5.813l-2-2v-3l-1.562.875c-3.062 1.413-6.187 2.25-9.438 3.125 3.54-4.156 8.062-6.781 13-9h3v-2l6-2-1-3-2.383-.26q-5.372-.586-10.742-1.177l-3.75-.409-3.633-.4-3.332-.365A184 184 0 0 1 222 86zm8 34c3.194 7.446 10.7 12.861 16.746 18.027a221 221 0 0 1 5.352 4.852l1.64 1.528a599 599 0 0 1 3.226 3.038c2.585 2.72 2.585 2.72 6.036 3.555v-49c-9.586 0-25.053 12.702-33 18m-44-82c8.527 3.3 16.33 7.173 24.063 12.063l2.623 1.603 2.474 1.557 2.239 1.398L219 55v3l2 1-1 2h2l-2 4-2-.875c-3.074-1.237-3.074-1.237-6.734-1.922-4.419-1.086-7.775-3.046-11.516-5.578l-1.812-1.172c-3.324-2.191-6.362-4.401-8.938-7.453.25-2.25.25-2.25 1-4h-6zm-68 49a115 115 0 0 1-.187 4.188l-.106 2.355c-1.983 6.89-10.046 10.44-15.77 13.894l-2.72 1.717-2.627 1.592-2.38 1.459C92 112 92 112 89.714 111.14L88 110v-5l-7 2c3.399-3.824 7.435-6.713 12-9h3v-2l2.125-1.137c5.235-2.824 10.326-5.688 15.219-9.078C115 85 115 85 118 86m141 75c3.875 1.875 3.875 1.875 5 3 .094 1.841.117 3.686.114 5.53v3.579l-.016 3.895-.005 3.964q-.006 5.226-.024 10.45-.014 5.33-.02 10.658Q264.033 212.54 264 223c-3.719-1.222-7.31-2.505-10.875-4.125l-2.367-1.07L249 217c1.968 6.83 3.916 9.327 10 13l-1 3-2-1v-2a152 152 0 0 0-7.687-4.625q-2.34-1.348-4.68-2.7l-2.366-1.36a426 426 0 0 1-9.58-5.752l-3.05-1.872A90 90 0 0 1 222 209c3.024.588 6.018 1.227 9 2l3-4-5-5c4.383 1.57 8.236 3.828 12.188 6.25l1.995 1.207a878 878 0 0 1 8.915 5.469l2.652 1.637 2.297 1.44c2.033 1.224 2.033 1.224 4.953.997q.113-11.425.165-22.852.022-3.887.061-7.775c.037-3.723.054-7.446.067-11.17.015-1.16.03-2.321.047-3.517v-3.275l.02-2.88c-.42-2.954-1.4-4.327-3.36-6.531m-11 58 1 2Z" fill="#FFF"/><path d="M219 56c6.13 2.37 11.427 5.63 16.938 9.188l2.65 1.693A1781 1781 0 0 1 245 71c-2 1-2 1-4.383.223l-2.742-1.16-2.758-1.153L233 68c.344 2.473.344 2.473 1 5l2 1v4h-15v-2l-3.75-.113c-13.873-.5-27.504-1.98-41.25-3.887v-1c9.61-.264 18.915.775 28.441 1.934 7.894.911 15.614 1.244 23.559 1.066-5.537-3.949-11.02-7.75-17-11 1.688-.687 1.688-.687 4-1 2.75 1.438 2.75 1.438 5 3l1-3-1-1q-.548-2.49-1-5m-97-33 2 1c-.625 1.938-.625 1.938-2 4q-2.99.56-6 1l-2 3 2 1v4l4-1c-4.659 4.985-11.04 8.75-17 12h-2v2l3 1-3 1-2-1-.437-3.437L98 44l-3-2-2 4h-3l-.68 1.953C88 50 88 50 85.617 50.61l-2.742.141-2.758.172L78 51c3.37-3.748 7.148-6.142 11.438-8.687l1.986-1.221C94.928 38.994 97.864 37.47 102 37v-2l1.582-.848c5.571-3.034 10.868-6.354 16.133-9.894zm68 74c7.034.664 7.034.664 10 4 1.577.94 3.159 1.87 4.77 2.75 1.75.98 3.47 2.012 5.18 3.063l3.175 1.937 3.008 1.86c2.947 1.429 4.646 1.697 7.867 1.39l-1 2h-16l4 5-6-2v-2l-2.074-.246c-3.688-.95-6.576-2.775-9.738-4.817l-1.811-1.142A679 679 0 0 1 187 106c.614-3.338 1.346-6.022 3-9M78 202c3.3 1.246 6.253 2.645 9.25 4.5a241 241 0 0 0 10.145 5.941l2.329 1.309q2.315 1.299 4.65 2.559c5.368 3.046 5.368 3.046 6.68 6.324-.065 2.835-.822 4.83-2.054 7.367-4.612-.514-7.539-1.663-11.375-4.25l-2.855-1.895L92 222a604 604 0 0 0-4.687-2.937L84 217l2-1a101 101 0 0 0 2-6l-2.75-1.187c-3.391-1.892-5.04-3.668-7.25-6.813M18 87l2 1-1 1c-.097 1.86-.122 3.724-.12 5.587l-.004 3.676.01 4.07v4.256q.001 5.795.013 11.59.007 6.05.008 12.1.005 11.464.021 22.928.016 13.049.022 26.096.016 26.85.05 53.697l5 1v3c2.982.773 5.976 1.412 9 2l2-4-2-1 1-2 13 8-2 1a101 101 0 0 1-6-3v2l-5 1v2l4 1v2c-4.61-1.635-8.596-4.03-12.75-6.562l-2.074-1.249c-5.028-3.041-5.028-3.041-6.176-4.189-.099-1.883-.126-3.77-.127-5.656l-.009-3.723.007-4.121-.006-4.31a5936 5936 0 0 1 0-11.74c.003-4.086 0-8.172 0-12.259q-.003-10.294.005-20.59.006-11.919-.002-23.838-.007-10.215-.003-20.43.003-6.11-.001-12.22-.004-5.74.005-11.484l-.002-4.226q-.002-2.874.006-5.747l.001-3.256C17 88 17 88 18 87m210 40 2 7-3-1-1 67 3 1-2 1-4-2v-72c4-1 4-1 5-1M81 245h2l.734 2.055c2.055 5.705 4.202 11.35 6.532 16.949C91 266 91 266 91 268h-6v-2l-4 2v4h3l1 3c-5.4-2.04-10.13-4.909-15.062-7.875l-2.721-1.605-2.627-1.575-2.38-1.421c-2.36-1.627-4.246-3.443-6.21-5.524 4.256.532 7.506 2.159 11.23 4.16 1.745.983 1.745.983 3.77.84.21-3.895.21-3.895-1-7 4.043 1.485 7.611 3.429 11.313 5.625l3.238 1.914L87 264c-.182-.534-.364-1.067-.55-1.617C84.505 256.624 82.715 250.83 81 245" fill="#FFF"/><path d="M35 167c3.664.574 5.328 1.973 7.89 4.598l2.15 2.177 2.21 2.287 2.258 2.3Q52.264 181.17 55 184l-3 5c-5.817-1.077-9.62-4.386-13.625-8.562-2.415-2.51-4.466-4.499-7.375-6.438v-2h3zM164 22c4.046 1.472 7.521 3.427 11.176 5.695l1.727 1.068q2.708 1.677 5.41 3.362l3.689 2.285Q190.504 37.2 195 40l-2 1c-2.475-1.114-4.679-2.582-7-4l-1 6h6l-1 6c-4.108-1.486-7.614-3.496-11.312-5.812l-1.72-1.073A1824 1824 0 0 1 172 39l-4.812-3L164 34c3.27-1.031 5.86-.964 9.25-.562l2.703.308L178 34c-3.477-3.78-3.477-3.78-8-6v-2l-2.437-.875C165 24 165 24 164 22m-5 229c8.552 1.327 15.446 4.981 23 9l-3 2v-2l-10-2 1 3-1 2 1.938.313L173 264l1 3c-5.08-1.56-9.452-3.227-14-6l-10-4 1 41h-2v-43l8 1v-2l2-2zm84-150 3 1v3l2 2a992 992 0 0 1-4.312 2.938l-2.426 1.652C239 113 239 113 236 114l-2-1-1 4-5 1 2 5h-3v-2l-3-1c-.49-3.124-.66-5.892 0-9 3.973-4.364 10.595-6.191 15.996-8.203 1.969-.63 1.969-.63 3.004-1.797" fill="#FFF"/><path d="M158 20c4.624 1.233 8.191 3.098 12 6v2l2.375.25C175 29 175 29 176.188 31l.812 2 2 1c-5.866 1.989-13.515.546-19.078-1.922-2.587-1.699-4.844-3.792-6.922-6.078l-2-2c3.625-4 3.625-4 7-4M62 120l3 1v72l-8-4-3 4h2l1 3c-3.626-.57-5.255-1.924-7.75-4.562l-1.86-1.942L46 188c3 0 3 0 6 1l2-5-19-19c3 0 3 0 5.42 2.095q1.427 1.44 2.834 2.901l1.52 1.54a998 998 0 0 1 4.788 4.901q2.397 2.45 4.8 4.891a667 667 0 0 1 2.982 3.052c2.566 2.652 2.566 2.652 5.656 4.62q.034-13.051.052-26.104.007-6.06.023-12.12.016-5.844.02-11.69.003-2.234.01-4.466.01-3.121.009-6.243l.006-3.593c.072-2.74.072-2.74-1.12-4.784M41 97c7.427 2.832 14.279 6.688 20.688 11.375 4.304 2.983 7.159 3.187 12.312 2.625v2c-4.716.925-7.673 1.23-12-1v-2l-6-1c-2.185 2.676-2.185 2.676-2 5l4 1v2l4 1v2c-5.374-1.273-9.09-4.08-13.477-7.262-2.795-1.925-5.63-3.39-8.695-4.828-2.792-1.39-5.275-3.123-7.828-4.91 1.813-.625 1.813-.625 4-1l3 2v2l9 2 1-2-2-1v-3h-2a105 105 0 0 1-4-5m173 104v2h-3v3h2v2c3.075-.776 3.075-.776 5-3v2h4v2l-3 1.188c-3.728 1.571-6.968 3.643-10.3 5.921L207 217l-2-1 1-3c-2.308-1.154-4.472-1.534-7-2l-1.375 2-1.625 2h-2l-2 5h-2l1-4h-3c5.51-3.992 11.021-7.72 17.023-10.934 1.671-.901 3.299-1.882 4.915-2.879C212 201 212 201 214 201m16-84 3 1-3 1c4.96 6.216 10.668 11.524 16.58 16.811 4.127 3.752 7.33 7.541 10.42 12.189l-6 1 2-5-2.937-.75L247 142c-.625-1.937-.625-1.937-1-4-1.977-1.754-1.977-1.754-4-3v2l-3 1c.593 3.392 1.767 5.21 4.063 7.75l1.66 1.86L246 149c-4.325-1.659-7.094-4.871-10.25-8.125l-1.68-1.707A1078 1078 0 0 1 230 135c3.106 0 4.353.54 7 2l-1-6h-2v-4c-1.289-1.66-1.289-1.66-3-3.062-1.687-1.473-1.687-1.473-3-2.938v-3z" fill="#FFF"/><path d="M202.313 210.188 205 211c.75 2.25.75 2.25 1 5-2.849 4.211-7.252 5.73-12 7-3 .188-3 .188-5 0l-1 3v-2l-3 1-1-5 4-1v-2l5-2-3 5h2l.688-2.187c2.164-4.64 4.215-7.932 9.625-7.625M48 70c1 3 1 3 1 5l1.875.438C53 76 53 76 55 77c-5.02 3.64-10.458 7.308-16.875 6.75C36 83 36 83 34 82c2.033-5.785 4.63-8.118 10-11 2.313-.687 2.313-.687 4-1m89-46h4v43c-5.45-1.211-10.679-2.415-16-4v-2l-2.152-.586-2.785-.789-2.778-.773C115 58 115 58 114 56c8.681 2.329 16.566 5.626 25 9l-1-39h-3zm-9.64 64.88 3.17.006h3.579l3.895.016 3.964.005q5.226.006 10.45.024 5.33.014 10.658.02Q173.54 88.967 184 89l1 3-2 2v-3l-58 1-2 12-2 2c1.266-16.86 1.266-16.86 6.36-17.12M133 21l2 1-2 1zm-3 0 4 4-3 1-1 3-4-2 .188 2.375L126 32c-3 2-3 2-6 2v2l-5 2 1-5-3-1c1.125-1.937 1.125-1.937 3-4l3.063-.5L122 27q1.025-1.988 2-4c3.125-1.25 3.125-1.25 6-2m38 236c6.026 1.06 11.956 2.362 17 6 1.5 2.75 1.5 2.75 2 5-1.937 1.25-1.937 1.25-5 2-3.162-1.026-6.063-2.452-9-4v-2l-5-1 1-3zm2 30 2 4h-2l-.187 2.813C169 297 169 297 166.5 298.75L164 300l-1 2c-3.062.625-3.062.625-6 1l-2-5c4.625-4.875 4.625-4.875 8-6l2-2c2-2 2-2 5-3M149 24c6 2 6 2 7 4l-5-1v41l25 2v1q-3.937.04-7.875.063l-2.203.025c-5.775.025-11.097-.505-16.922-1.088zM39 238c5.75 1.875 5.75 1.875 8 3v2l4 1v3l-5 1 2 4c-3.59-1.334-6.846-2.81-10-5l-1-3-3-1v-2l5-1zM186 37c3.083 1.199 6.063 2.477 9 4v2l5 2v2l3 1c-1.437 1.625-1.437 1.625-4 3-3.143-.198-6.105-.744-9-2l-1-3 1-2h-6zm-76 116c1.153 3.68.58 6.063-.457 9.77-.753 3.092-1.027 6.18-1.297 9.347C108 174 108 174 107 176h28c-2 9-2 9-4 12 .458-3.47.891-6.674 2-10h-28c1.025-8.673 2.082-16.732 5-25m-50 97 2 1v2l9 3v2l3 1-5 4-14-7c2.75-4.875 2.75-4.875 5-6m77-1h4v50l-3-1 1-48zm53-152c7.034.664 7.034.664 10 4 2.285 1.434 4.632 2.704 7 4-2.763 1.381-4.947 1.19-8 1l-2-2-3-1v6c-4.75-1.875-4.75-1.875-7-3 .557-3.344 1.352-6.033 3-9m-76-10h2c.425 4.33.536 6.31-2.187 9.813-2.601 2.022-4.69 3.206-7.813 4.187l-1-4h-3c5.831-5.993 5.831-5.993 9-8h3zm-14 10 2 1-2 1zm76-26c9.61-.264 18.915.775 28.441 1.934 7.894.911 15.614 1.244 23.559 1.066l-2-3c3.937 1.312 6.227 2.92 9 6-6.864.111-13.593-.196-20.426-.84l-2.88-.262q-2.986-.273-5.973-.552-4.564-.424-9.13-.836l-5.83-.537-2.743-.25c-4.062-.383-8.035-.797-12.018-1.723zm35 48 6 1v80h-3l.489-1.557c.671-3.209.663-6.255.688-9.535l.02-2.14q.028-3.494.041-6.987l.013-2.414q.03-6.319.044-12.638c.011-4.351.046-8.702.085-13.054.026-3.347.035-6.694.038-10.042q.008-2.406.035-4.813c.025-2.243.024-4.485.017-6.728l.018-3.867c-.567-3.75-1.56-4.912-4.488-7.225m-96.738 162.71c3.026 1.426 5.747 3.091 8.55 4.915l2.958 1.914L128 290l-2 1c-3.947-1.435-7.311-2.678-10-6-1.106 2.39-1.106 2.39-2 5 1.255 2.51 2.5 2.871 5 4v2c-4.776-1.642-8.794-4.265-13-7l2-1v-3h2v-3c2-1 2-1 4.262-.29M56 108l6 2v2l11 1v2h-7l-1 6-3-1v-2l-4-1v-2l-1.937-.312L54 114l-1-3zm102 35 1 3-2 3h33c0 4.72-1.288 6.27-4 10l-2-1 4-7h-33c1-5 1-5 3-8" fill="#FFF"/><path d="m36 77-.625 1.875L35 81l2 2c3.412-.37 6.689-1.109 10-2-3.081 3.418-6.86 5.342-10.82 7.598-2.3 1.217-2.3 1.217-3.18 3.402l2.313.813c2.6 1.148 3.79 2.156 5.687 4.187a187 187 0 0 1-4.437-1.25l-2.497-.703C32 94 32 94 31.094 92.02L31 90a91 91 0 0 1 4-4v-3c-4.836.99-9.476 1.957-14 4v-2a102 102 0 0 1 6.375-4.125l1.828-1.129C33.73 77 33.73 77 36 77m228 21v55c-4.45-2.225-6.6-4.446-10-8l1-2 8 7v-49l-8 4-2-1a783 783 0 0 1 4.375-3l2.46-1.687C262 98 262 98 264 98M33 232c4.905 2.33 9.44 5.071 14 8l-2 1a101 101 0 0 1-6-3v2l-5 1v2l4 1v2c-4.235-1.531-7.992-3.649-11.812-6l-1.811-1.078c-1.496-.916-2.942-1.913-4.377-2.922v-2h4v3c2.982.773 5.976 1.412 9 2l2-4-2-1zm226-71c3.875 1.875 3.875 1.875 5 3 .094 1.841.117 3.686.114 5.53v3.579l-.016 3.895-.005 3.964q-.006 5.226-.024 10.45-.014 5.33-.02 10.658Q264.033 212.54 264 223c-3.48-1.135-6.773-2.262-10-4v-2l2.313 1c2.678 1.174 2.678 1.174 5.687 1q.113-11.425.165-22.852.022-3.887.061-7.775c.037-3.723.054-7.446.067-11.17.015-1.16.03-2.321.047-3.517v-3.275l.02-2.88c-.42-2.954-1.4-4.327-3.36-6.531M89 255h6l3 9-5 3-1-2h-2c-1.837-3.782-2.158-5.946-1-10M39 98l5 1 1 3h2v3l3 1-2 3c-3.344-.557-6.033-1.352-9-3v-2l-3-1zm9 114 1 2c2.025.652 2.025.652 4 1-1.167 3.501-1.815 4.24-5 6-3.744.263-6.435.188-10-1 .215-1.86.215-1.86 1-4 2.066-1.266 2.066-1.266 4.563-2.25l2.503-1.016zm178-11 9 5-4 6c-3.147-.7-6.026-1.76-9-3l2-6h2zm-111 31c1.642 3.283.519 6.425 0 10l4-1c-1.398 2.97-3.006 5.596-4.937 8.25l-1.528 2.14L111 253h-3c.937-7.499 3.996-14.134 7-21" fill="#FFF"/><path d="M257 148c2.125 1.438 2.125 1.438 4 4-.248 3.128-1.056 6.015-2 9l-4-2v-2l-1.687-.625c-3.238-1.925-4.995-4.414-7.313-7.375l8 4zM44.125 219.938c1.087.291 1.087.291 2.195.59L48 221c-3.76 3.275-7.711 5.565-12.11 7.852-2.044 1.012-2.044 1.012-2.89 3.148h-2v-3l6-2-1-5h2v-2c2.547-1.274 3.428-.802 6.125-.062M45 178c7.571 2.857 7.571 2.857 10 7l-3 4c-2.169-.506-4-1-6-2v-4c-1.417-1.751-1.417-1.751-3-3h2zm81-107 9 2-1 3h-2v2l3.073-.032a2465 2465 0 0 1 11.289-.078q2.442-.015 4.885-.04c2.341-.025 4.682-.036 7.023-.045l2.206-.032c3.737 0 5.33.098 8.524 2.227l-38-1v-6l-5-1zm23 184c9 3 9 3 11 5-3.916-.534-6.393-1.197-10-3l1 41h-2zm-33 30 3 1v2l5 1v2h-2l1 3c-1.687.688-1.687.688-4 1-2.687-1.25-2.687-1.25-5-3l-1-3c1.438-2.187 1.438-2.187 3-4M35 167c1.875.125 1.875.125 4 1 1.647 3.607 2.272 5.185 1 9-3.735-.498-5.812-.875-9-3v-2h3z" fill="#FFF"/><path d="M159 250c1 3 1 3 0 6-2.812.688-2.812.688-6 1-1.937-1.187-1.937-1.187-3-3 .125-2.125.125-2.125 1-4 3.29-1.097 4.713-.8 8 0M94 40l2 1-2 5-2-1c-1.708 1.634-2.935 2.87-4 5-2.285.414-2.285.414-5.062.625l-2.786.227L78 51c3.051-3.324 6.234-5.542 10.125-7.812l3.195-1.895zm115.11 72.867c8.739.026 8.739.026 12.89 1.133-3 2-3 2-6 2l1 3c-2.687.313-2.687.313-6 0-2.875-2.5-2.875-2.5-5-5 1-1 1-1 3.11-1.133M81 245h2l.734 2.055c2.06 5.722 4.225 11.362 6.63 16.949C91 266 91 266 90 268l-10-5 1-2 6 3c-.182-.534-.364-1.067-.55-1.617C84.505 256.624 82.715 250.83 81 245m158-26 1.898.254 2.477.309 2.46.316c2.214.303 2.214.303 4.165-.879l.563 2.688c1.953 4.5 4.328 5.725 8.437 8.312l-1 3-2-1v-2c-1.616-1.213-1.616-1.213-3.719-2.348l-2.324-1.334-2.457-1.38q-2.394-1.357-4.781-2.723L240.56 221l-1.56-1zm15 14 2 1-3 2-1 3a91 91 0 0 1-4 4l-2 2-6-2c2.805-2.994 5.612-5.2 9.125-7.312l2.633-1.614zM77 212l4 1 .313 2.875c.678 4.86 2.196 9.463 3.687 14.125-3.607-2.404-3.855-3.947-5-8h-3zm192 25a2403 2403 0 0 1-11.375 7.063l-3.273 2.048-3.125 1.924-2.889 1.793L246 251l-2-1c20.103-14.632 20.103-14.632 25-13M115 85l3 1c-.108 4.516-.245 7.953-2.937 11.688-4.125 3.114-8.376 6.105-13.063 8.312l-2-1 2.992-1.652c7.236-3.877 7.236-3.877 12.383-9.95.617-2.686.617-2.686.625-6.398l-2-1zm76 130 2 1-3 4 3 1h-2v2h-2l-1 3v-2l-3 1-1-5 4-1v-2zM56 108l6 2v3l-3 1 2 1v2h-3v-2l-1.937-.312L54 114l-1-3zm114 183h9c-2.805 2.994-5.612 5.2-9.125 7.313l-2.633 1.613L165 301l-2-1c3.75-3 3.75-3 6-3zM126 25l2.25 1.563c2.582 1.686 2.582 1.686 5.063 1.125L135 27c-2.401 2.639-5.006 4.364-8.062 6.188l-2.66 1.605C122 36 122 36 120 36v-2l5-2zM60 61l2 1c-4.934 6.702-4.934 6.702-9.125 7.875L50 70c-1.337.317-2.673.643-4 1 2.805-2.994 5.612-5.2 9.125-7.312l2.633-1.614zm9-3 6 2c-2 2-2 2-5 3l1 2c-1.812.688-1.812.688-4 1-1.75-1.437-1.75-1.437-3-3zm45-2c7.864 2.183 15.417 4.993 23 8l-1 2-11-3v-2l-2.152-.586-2.785-.789-2.778-.773C115 58 115 58 114 56m62-16 2.063.938c3.31 1.197 6.453 1.61 9.937 2.062l3 1-1 5c-3.598-1.323-6.637-2.92-9.812-5.062l-2.395-1.598L176 41zm-43 198c2.625.375 2.625.375 5 1l-1.437 2.313c-1.664 2.651-1.664 2.651-2.563 5.687l-5-3c1.152-2.468 2.048-4.048 4-6M32 102c4.75.875 4.75.875 7 2v2l2.563.688c4.111 1.57 6.94 3.655 10.437 6.312l-2 1c-2.434-1.243-4.686-2.554-7-4l-2.906-1.793C34.32 104.599 34.32 104.599 32 103zm194-31c3.937 1.312 6.227 2.92 9 6-6.433.12-12.618-.176-19-1v-1l12-1z" fill="#FFF"/><path d="M200 221q-3.432 2.258-6.875 4.5l-1.973 1.3c-4.925 3.2-4.925 3.2-7.152 3.2v-2l1.938-.812c2.393-1.075 2.393-1.075 3.062-4.188 1.996-.984 1.996-.984 4.438-1.75l2.433-.797C198 220 198 220 200 221M77 61l2 1-12 8-3-1c4.75-3 4.75-3 7-3l-2-4 2.875.063c3.032.163 3.032.163 5.125-1.063m34 182 1 4 3-1a56.5 56.5 0 0 1-4 7h-3c.507-3.719 1.116-6.735 3-10m136-136 3 1q-3.68 2.294-7.375 4.563l-2.117 1.326c-1.8 1.099-3.651 2.112-5.508 3.111l-2-1 1-3 2-.187c3.61-.978 6.097-2.714 9.133-4.852zM130 21l4 4-3 1-1 3-3-2c0-3 0-3 1.5-4.687zm3 0 2 1-2 1zM56 257c4.992.468 9.13 2.917 13 6v2c-4.724-1.624-8.942-4.11-13-7zM211 62c3.344.557 6.033 1.352 9 3l1-3 2 1-2 5c-3.59-1.333-6.796-2.894-10-5zm-27 27 1 3-2 2v-3h-16v-1c5.695-.642 11.267-1.125 17-1m65 128 7 2a283 283 0 0 1-5 5h-1zM24 85l3 4c-3 1-3 1-7 1l-1 2c.25-2.375.25-2.375 1-5 2.063-1.312 2.063-1.312 4-2m98-62 2 1c-.625 1.938-.625 1.938-2 4-2.812.625-2.812.625-6 1a88 88 0 0 0-5 2c3.284-3.678 6.628-5.814 11-8m-1 191c1.805 6.008-1.21 10.675-4 16-1-2-1-2-.004-5.258q.71-1.937 1.442-3.867l.736-1.996A769 769 0 0 1 121 214m128-71c2.188.313 2.188.313 4 1l-1 6c-4.875-1.75-4.875-1.75-6-4 1.25-1.562 1.25-1.562 3-3m5-48 2 2-1 2 2 2h-2v2l-5-2v-2h2v-2h2zM20 234h4v3l1.875.438C28 238 28 238 30 239v2c-3.873-1.144-7.003-2.233-10-5z" fill="#FFF"/><path d="M264 98v8h-1v-5l-1.68.91c-.724.38-1.449.76-2.195 1.153l-2.18 1.16L255 105l-2-1a783 783 0 0 1 4.375-3l2.46-1.687C262 98 262 98 264 98M134 17l-1 6-3-1a100 100 0 0 0-6 1c2.644-2.923 5.894-6 10-6m45 262 2 1c-1.295 2.428-2.358 3.77-4.98 4.71-1.994.488-4.007.894-6.02 1.29 2.597-3.895 4.834-4.917 9-7m48-152 1 4-4-1v11h-1v-13zM88 104l2 2c-1.25 1.5-1.25 1.5-3 3h-4l-1 2c.188-2.375.188-2.375 1-5 2.563-1.312 2.563-1.312 5-2M45 81l2 1q-2.43 1.294-4.875 2.563l-2.742 1.44L37 87l-2-1 1-4 2.25.625c3.125.426 4.072-.148 6.75-1.625m188-13 6 1-1 4h-4zM94 40l2 1-2 5-2-1c-2.008.281-4.01.61-6 1 2.366-2.615 4.86-4.39 8-6M35 167h2c-.586 6.152-.586 6.152-1 8l-2 1-3-2v-2h3zm50-56 1 2 4-1c-2.366 2.615-4.86 4.39-8 6l-2-1 3-1v-4zm78 178 2 1c-1.062 1.938-1.062 1.938-3 4-3.687.75-3.687.75-7 1 2.366-2.615 4.86-4.39 8-6M60 249c3.594 1.335 6.755 2.96 10 5-3 1-3 1-6 1v-2h-2zm-15-71 6 2v2l-4 2-4-4h2zm166-59 6 1v10c-2-4-2-4-2.437-6.062-.68-2.344-1.745-3.357-3.563-4.938m-159-5 6 1v2l4 1v2c-4.43-1.208-6.981-2.517-10-6m147-2c5.027.457 8.149 2.992 12 6l-2 1c-2.125-.937-2.125-.937-4-2v-2l-2.437-.375L200 114z" fill="#FFF"/><path d="M35 79c2.867.573 3.861.861 6 3l-1 2c-2.169-.506-4-1-6-2zm22 126v2l-10 5-1-2a805 805 0 0 1 4.375-2.5l2.46-1.406C55 205 55 205 57 205m128-55h6c-1.25 3.46-2.675 6.147-5 9l-2-1 4-7zm51-19 1 6-4-1-1-4c2-1 2-1 4-1M114 87h2c.125 3.375.125 3.375 0 7l-2 2-.375-2.937L113 90l-2-1h3zm50-54 8 1v4c-3.375-1.186-5.647-2.276-8-5m-47 252 2 1v2l5 1v2h-6zm74-11 2 1v2h-2v2l-4 1-1-2c1.634-1.708 2.87-2.935 5-4m26-17v2l-5 1-1 3-4-1q1.932-1.257 3.875-2.5l2.18-1.406C215 257 215 257 217 257m-68-2q2.19.676 4.375 1.375l2.46.773C158 258 158 258 160 260c-3.95-.551-7.35-1.39-11-3zm-101-3 8 1v4c-3.375-1.186-5.647-2.276-8-5m107-6c2 0 2 0 3.375 1.313L160 249c1.32 1.018 2.65 2.022 4 3-3.558-.61-6.683-1.578-10-3zm95-9v2l-5 1-1 3-4-1q1.932-1.257 3.875-2.5l2.18-1.406C248 237 248 237 250 237m-133-8h1c.18 3.947.094 6.598-2 10h-2q.463-2.22.938-4.437l.527-2.497C116 230 116 230 117 229m-89-72c3.571 1.88 5.547 3.17 7 7l-5-1v-4h-2zm21-87 3 1-1 2 2 2-1 2-5-2zm141-21c5.75.875 5.75.875 8 2v3c-3.375-1.186-5.647-2.276-8-5m48 194 2 1-2.437.813L235 246l-1 3-4-1a351 351 0 0 1 3.875-2.562l2.18-1.442zM156 28c5.75.875 5.75.875 8 2v3c-3.375-1.186-5.647-2.276-8-5m101 120v4l-4 2-1-4c3-2 3-2 5-2M176 40c3.083 1.199 6.063 2.477 9 4v2c-3.937-1.312-6.227-2.92-9-6" fill="#FFF"/></svg>
