<?xml version="1.0" standalone="no"?>
<!DOCTYPE svg PUBLIC "-//W3C//DTD SVG 20010904//EN"
 "http://www.w3.org/TR/2001/REC-SVG-20010904/DTD/svg10.dtd">
<svg version="1.0" xmlns="http://www.w3.org/2000/svg"
 width="526.000000pt" height="471.000000pt" viewBox="0 0 526.000000 471.000000"
 preserveAspectRatio="xMidYMid meet">
<metadata>
Created by potrace 1.16, written by Peter Selinger 2001-2019
</metadata>
<g transform="translate(0.000000,471.000000) scale(0.100000,-0.100000)"
fill="#000000" stroke="none">
<path d="M2980 4313 c-178 -147 -188 -159 -171 -212 13 -45 15 -47 224 -155
151 -78 182 -82 222 -34 23 27 26 39 22 76 l-5 44 52 -6 c215 -25 442 -141
602 -308 126 -132 203 -258 249 -415 46 -153 55 -172 85 -188 49 -25 97 -19
132 16 29 28 30 34 25 87 -7 79 -69 259 -124 362 -153 286 -415 507 -723 609
-103 34 -237 61 -306 61 -32 0 -44 4 -44 14 0 8 5 18 10 21 6 3 10 24 10 47 0
32 -6 46 -31 69 -53 49 -70 43 -229 -88z"/>
<path d="M1498 4245 c-163 -27 -359 -108 -507 -208 -281 -189 -488 -509 -546
-844 -19 -110 -19 -345 0 -454 91 -520 508 -942 1032 -1046 120 -23 366 -23
486 0 464 92 857 444 991 888 48 159 59 248 53 429 -7 227 -41 360 -143 560
-115 225 -336 442 -572 559 -91 46 -262 101 -362 117 -104 17 -328 17 -432 -1z
m337 -185 c255 -29 487 -143 666 -327 193 -199 285 -405 314 -703 8 -79 -8
-235 -36 -344 -27 -108 -112 -283 -186 -381 -142 -191 -355 -335 -594 -400
-117 -33 -314 -44 -439 -26 -420 62 -776 374 -895 786 -147 508 96 1055 570
1286 199 97 393 132 600 109z"/>
<path d="M1642 3917 c-22 -23 -22 -25 -22 -487 l0 -465 228 -227 c206 -206
231 -228 261 -228 25 0 43 9 72 39 67 66 66 68 -161 295 l-199 201 -3 428 -3
429 -24 19 c-35 29 -121 26 -149 -4z"/>
<path d="M3273 3153 c-60 -5 -59 -1 -47 -133 l6 -66 98 4 c125 5 249 -11 369
-50 364 -115 637 -402 737 -773 25 -89 28 -118 28 -270 1 -156 -1 -179 -27
-275 -221 -827 -1228 -1105 -1835 -507 -118 116 -217 272 -263 416 -13 39 -27
71 -32 71 -13 0 -161 -52 -170 -60 -13 -11 45 -168 95 -260 190 -349 533 -599
912 -665 114 -19 346 -20 458 0 171 30 376 117 528 223 89 63 244 221 308 315
481 701 173 1662 -627 1957 -150 55 -377 86 -538 73z"/>
<path d="M3314 2580 c-39 -16 -54 -49 -54 -123 0 -56 -3 -69 -17 -73 -94 -30
-162 -84 -197 -157 -21 -42 -27 -69 -27 -126 -2 -154 83 -246 301 -328 135
-51 170 -84 170 -161 0 -78 -69 -118 -154 -90 -48 16 -74 49 -84 108 l-8 45
-128 3 c-71 1 -133 -1 -138 -6 -12 -12 10 -119 34 -167 40 -80 130 -151 216
-170 32 -7 32 -7 32 -69 0 -53 4 -67 25 -90 21 -23 32 -26 88 -26 49 0 68 4
84 20 21 19 38 87 31 126 -2 16 8 22 59 38 122 38 203 130 219 248 10 73 -25
175 -80 232 -43 44 -162 111 -270 152 -27 10 -67 34 -88 54 -32 31 -38 43 -38
78 0 29 7 49 26 71 22 27 33 31 73 31 36 0 52 -5 69 -22 24 -27 42 -70 42
-104 l0 -24 135 0 135 0 0 40 c0 117 -104 253 -219 287 l-61 18 0 51 c0 75
-17 114 -56 130 -37 16 -88 17 -120 4z"/>
<path d="M740 1723 c-29 -11 -60 -47 -65 -77 -8 -43 36 -207 83 -316 182 -412
568 -696 1021 -751 l101 -12 -15 -23 c-24 -37 -19 -78 14 -113 49 -52 81 -45
186 42 182 148 210 174 219 199 11 33 1 72 -25 97 -26 24 -332 181 -353 181
-56 0 -102 -63 -90 -126 l7 -36 -44 7 c-167 28 -345 98 -464 183 -209 150
-359 370 -419 619 -10 39 -27 81 -38 93 -32 34 -79 47 -118 33z"/>
</g>
</svg>
